<svg data-v-423bf9ae="" xmlns="http://www.w3.org/2000/svg" viewBox="0 0 695 90" class="iconLeftSlogan"><!----><!----><!----><g data-v-423bf9ae="" id="56dbaf54-42ce-40be-9cbb-4817e0e4ebee" fill="white" transform="matrix(5.9055118997155125,0,0,5.9055118997155125,101.07421039255956,-24.330709304670023)"><path d="M4.14 8.16L4.14 8.16Q4.23 8.19 4.32 8.22L4.32 8.22L4.32 8.22Q4.41 8.25 4.48 8.27L4.48 8.27L4.48 8.27Q5.38 8.58 6.03 8.90L6.03 8.90L6.03 8.90Q6.68 9.23 7.17 9.83L7.17 9.83L7.17 9.83Q7.67 10.43 7.67 11.34L7.67 11.34L7.67 11.34Q7.67 12.81 6.64 13.48L6.64 13.48L6.64 13.48Q5.61 14.15 4.10 14.15L4.10 14.15L4.10 14.15Q2.86 14.15 1.94 13.72L1.94 13.72L1.94 13.72Q1.02 13.29 0.56 12.36L0.56 12.36L1.97 11.65L1.97 11.65Q2.23 12.19 2.77 12.50L2.77 12.50L2.77 12.50Q3.32 12.81 4.10 12.81L4.10 12.81L4.10 12.81Q4.98 12.81 5.51 12.49L5.51 12.49L5.51 12.49Q6.03 12.17 6.03 11.35L6.03 11.35L6.03 11.35Q6.03 10.85 5.75 10.54L5.75 10.54L5.75 10.54Q5.47 10.22 5.12 10.07L5.12 10.07L5.12 10.07Q4.77 9.91 4.06 9.66L4.06 9.66L4.06 9.66Q3.26 9.38 2.65 9.08L2.65 9.08L2.65 9.08Q2.03 8.78 1.53 8.16L1.53 8.16L1.53 8.16Q1.02 7.55 1.02 6.61L1.02 6.61L1.02 6.61Q1.02 5.29 2.01 4.70L2.01 4.70L2.01 4.70Q3.00 4.12 4.40 4.12L4.40 4.12L4.40 4.12Q5.46 4.12 6.28 4.55L6.28 4.55L6.28 4.55Q7.10 4.98 7.53 5.89L7.53 5.89L6.16 6.62L6.16 6.62Q5.66 5.46 4.40 5.46L4.40 5.46L4.40 5.46Q2.67 5.46 2.67 6.62L2.67 6.62L2.67 6.62Q2.67 7.21 3.08 7.57L3.08 7.57L3.08 7.57Q3.49 7.92 4.14 8.16L4.14 8.16ZM16.42 13.31L15.41 14.28L14.53 13.41L14.53 13.41Q13.61 14.15 12.31 14.15L12.31 14.15L12.31 14.15Q10.81 14.15 10.09 13.59L10.09 13.59L10.09 13.59Q9.38 13.03 9.38 11.86L9.38 11.86L9.38 11.86Q9.38 10.68 10.16 10.13L10.16 10.13L10.16 10.13Q10.93 9.58 12.59 9.58L12.59 9.58L14.01 9.58L14.01 9.21L14.01 9.21Q14.01 8.65 13.68 8.41L13.68 8.41L13.68 8.41Q13.34 8.16 12.59 8.16L12.59 8.16L12.59 8.16Q11.91 8.16 11.49 8.31L11.49 8.31L11.49 8.31Q11.06 8.46 10.79 8.76L10.79 8.76L9.79 7.78L9.79 7.78Q10.22 7.35 10.98 7.09L10.98 7.09L10.98 7.09Q11.73 6.83 12.70 6.83L12.70 6.83L12.70 6.83Q14.04 6.83 14.81 7.36L14.81 7.36L14.81 7.36Q15.58 7.88 15.58 8.85L15.58 8.85L15.58 12.47L16.42 13.31ZM10.93 11.86L10.93 11.86Q10.93 12.39 11.28 12.61L11.28 12.61L11.28 12.61Q11.63 12.84 12.54 12.84L12.54 12.84L12.54 12.84Q12.98 12.84 13.37 12.68L13.37 12.68L13.37 12.68Q13.76 12.53 14.01 12.29L14.01 12.29L14.01 10.82L13.06 10.82L13.06 10.82Q12.14 10.82 11.69 10.92L11.69 10.92L11.69 10.92Q11.24 11.02 11.09 11.23L11.09 11.23L11.09 11.23Q10.93 11.44 10.93 11.86L10.93 11.86ZM21.03 14.15L21.03 14.15Q20.02 14.15 19.12 13.83L19.12 13.83L19.12 13.83Q18.23 13.51 17.79 12.87L17.79 12.87L19.08 12.03L19.08 12.03Q19.29 12.39 19.88 12.61L19.88 12.61L19.88 12.61Q20.47 12.84 21.08 12.84L21.08 12.84L21.08 12.84Q21.73 12.84 22.17 12.64L22.17 12.64L22.17 12.64Q22.61 12.45 22.61 12.04L22.61 12.04L22.61 12.04Q22.61 11.75 22.34 11.55L22.34 11.55L22.34 11.55Q22.08 11.35 21.79 11.27L21.79 11.27L21.79 11.27Q21.50 11.19 20.97 11.05L20.97 11.05L20.97 11.05Q19.92 10.81 19.05 10.29L19.05 10.29L19.05 10.29Q18.19 9.77 18.19 8.76L18.19 8.76L18.19 8.76Q18.19 8.12 18.63 7.69L18.63 7.69L18.63 7.69Q19.08 7.25 19.76 7.04L19.76 7.04L19.76 7.04Q20.44 6.83 21.15 6.83L21.15 6.83L21.15 6.83Q22.01 6.83 22.79 7.15L22.79 7.15L22.79 7.15Q23.56 7.46 23.98 8.12L23.98 8.12L22.78 8.90L22.78 8.90Q22.54 8.53 22.06 8.33L22.06 8.33L22.06 8.33Q21.59 8.13 21.13 8.13L21.13 8.13L21.13 8.13Q20.59 8.13 20.18 8.32L20.18 8.32L20.18 8.32Q19.77 8.50 19.77 8.85L19.77 8.85L19.77 8.85Q19.77 9.17 20.15 9.35L20.15 9.35L20.15 9.35Q20.54 9.53 21.15 9.70L21.15 9.70L21.46 9.79L21.46 9.79Q22.19 9.98 22.74 10.20L22.74 10.20L22.74 10.20Q23.30 10.42 23.75 10.86L23.75 10.86L23.75 10.86Q24.21 11.31 24.21 12.00L24.21 12.00L24.21 12.00Q24.21 12.71 23.75 13.20L23.75 13.20L23.75 13.20Q23.30 13.69 22.58 13.92L22.58 13.92L22.58 13.92Q21.85 14.15 21.03 14.15L21.03 14.15ZM32.10 8.33L29.64 8.33L29.64 11.83L29.64 11.83Q29.64 12.45 29.83 12.67L29.83 12.67L29.83 12.67Q30.03 12.89 30.39 12.89L30.39 12.89L30.39 12.89Q30.86 12.89 31.67 12.71L31.67 12.71L31.67 14L31.67 14Q31.63 14 31.25 14.08L31.25 14.08L31.25 14.08Q30.87 14.15 30.10 14.15L30.10 14.15L30.10 14.15Q28.07 14.15 28.07 12.29L28.07 12.29L28.07 8.33L26.11 8.33L26.11 7L28.07 7L28.07 4.48L29.64 4.48L29.64 7L32.10 7L32.10 8.33ZM41.62 13.31L40.61 14.28L39.73 13.41L39.73 13.41Q38.81 14.15 37.51 14.15L37.51 14.15L37.51 14.15Q36.01 14.15 35.29 13.59L35.29 13.59L35.29 13.59Q34.58 13.03 34.58 11.86L34.58 11.86L34.58 11.86Q34.58 10.68 35.36 10.13L35.36 10.13L35.36 10.13Q36.13 9.58 37.79 9.58L37.79 9.58L39.21 9.58L39.21 9.21L39.21 9.21Q39.21 8.65 38.88 8.41L38.88 8.41L38.88 8.41Q38.54 8.16 37.79 8.16L37.79 8.16L37.79 8.16Q37.11 8.16 36.69 8.31L36.69 8.31L36.69 8.31Q36.26 8.46 35.99 8.76L35.99 8.76L34.99 7.78L34.99 7.78Q35.42 7.35 36.18 7.09L36.18 7.09L36.18 7.09Q36.93 6.83 37.90 6.83L37.90 6.83L37.90 6.83Q39.24 6.83 40.01 7.36L40.01 7.36L40.01 7.36Q40.78 7.88 40.78 8.85L40.78 8.85L40.78 12.47L41.62 13.31ZM36.13 11.86L36.13 11.86Q36.13 12.39 36.48 12.61L36.48 12.61L36.48 12.61Q36.83 12.84 37.74 12.84L37.74 12.84L37.74 12.84Q38.18 12.84 38.57 12.68L38.57 12.68L38.57 12.68Q38.96 12.53 39.21 12.29L39.21 12.29L39.21 10.82L38.26 10.82L38.26 10.82Q37.34 10.82 36.89 10.92L36.89 10.92L36.89 10.92Q36.44 11.02 36.29 11.23L36.29 11.23L36.29 11.23Q36.13 11.44 36.13 11.86L36.13 11.86ZM56.32 8.82L56.32 8.82Q56.32 8.76 56.81 8.97L56.81 8.97L56.81 8.97Q57.30 9.17 57.69 9.70L57.69 9.70L57.69 9.70Q58.09 10.23 58.09 11.20L58.09 11.20L58.09 11.20Q58.09 12.60 57.42 13.30L57.42 13.30L57.42 13.30Q56.76 14 55.50 14L55.50 14L51.59 14L51.59 4.20L54.78 4.20L54.78 4.20Q55.55 4.20 56.15 4.35L56.15 4.35L56.15 4.35Q56.74 4.49 57.17 5.03L57.17 5.03L57.17 5.03Q57.60 5.56 57.60 6.59L57.60 6.59L57.60 6.59Q57.60 7.49 57.32 7.98L57.32 7.98L57.32 7.98Q57.04 8.47 56.68 8.67L56.68 8.67L56.68 8.67Q56.32 8.88 56.32 8.82L56.32 8.82ZM53.16 5.53L53.16 8.29L54.81 8.29L54.81 8.29Q55.43 8.29 55.69 7.93L55.69 7.93L55.69 7.93Q55.94 7.57 55.94 6.79L55.94 6.79L55.94 6.79Q55.94 6.27 55.83 6.01L55.83 6.01L55.83 6.01Q55.72 5.74 55.47 5.63L55.47 5.63L55.47 5.63Q55.22 5.53 54.75 5.53L54.75 5.53L53.16 5.53ZM55.13 12.67L55.13 12.67Q55.71 12.67 56 12.51L56 12.51L56 12.51Q56.29 12.35 56.40 12.02L56.40 12.02L56.40 12.02Q56.50 11.69 56.50 11.14L56.50 11.14L56.50 11.14Q56.50 10.29 56.15 9.95L56.15 9.95L56.15 9.95Q55.79 9.60 55.13 9.60L55.13 9.60L53.16 9.60L53.16 12.67L55.13 12.67ZM66.82 13.31L65.81 14.28L64.93 13.41L64.93 13.41Q64.01 14.15 62.71 14.15L62.71 14.15L62.71 14.15Q61.21 14.15 60.49 13.59L60.49 13.59L60.49 13.59Q59.78 13.03 59.78 11.86L59.78 11.86L59.78 11.86Q59.78 10.68 60.56 10.13L60.56 10.13L60.56 10.13Q61.33 9.58 62.99 9.58L62.99 9.58L64.41 9.58L64.41 9.21L64.41 9.21Q64.41 8.65 64.08 8.41L64.08 8.41L64.08 8.41Q63.74 8.16 62.99 8.16L62.99 8.16L62.99 8.16Q62.31 8.16 61.89 8.31L61.89 8.31L61.89 8.31Q61.46 8.46 61.19 8.76L61.19 8.76L60.19 7.78L60.19 7.78Q60.62 7.35 61.38 7.09L61.38 7.09L61.38 7.09Q62.13 6.83 63.10 6.83L63.10 6.83L63.10 6.83Q64.44 6.83 65.21 7.36L65.21 7.36L65.21 7.36Q65.98 7.88 65.98 8.85L65.98 8.85L65.98 12.47L66.82 13.31ZM61.33 11.86L61.33 11.86Q61.33 12.39 61.68 12.61L61.68 12.61L61.68 12.61Q62.03 12.84 62.94 12.84L62.94 12.84L62.94 12.84Q63.38 12.84 63.77 12.68L63.77 12.68L63.77 12.68Q64.16 12.53 64.41 12.29L64.41 12.29L64.41 10.82L63.46 10.82L63.46 10.82Q62.54 10.82 62.09 10.92L62.09 10.92L62.09 10.92Q61.64 11.02 61.49 11.23L61.49 11.23L61.49 11.23Q61.33 11.44 61.33 11.86L61.33 11.86ZM70.53 12.67L74.33 12.67L74.33 14L68.74 14L68.74 12.67L72.39 8.33L68.85 8.33L68.85 7L74.16 7L74.16 8.33L70.53 12.67ZM78.93 12.67L82.73 12.67L82.73 14L77.14 14L77.14 12.67L80.79 8.33L77.25 8.33L77.25 7L82.56 7L82.56 8.33L78.93 12.67ZM92.02 13.31L91.01 14.28L90.13 13.41L90.13 13.41Q89.21 14.15 87.91 14.15L87.91 14.15L87.91 14.15Q86.41 14.15 85.69 13.59L85.69 13.59L85.69 13.59Q84.98 13.03 84.98 11.86L84.98 11.86L84.98 11.86Q84.98 10.68 85.76 10.13L85.76 10.13L85.76 10.13Q86.53 9.58 88.19 9.58L88.19 9.58L89.61 9.58L89.61 9.21L89.61 9.21Q89.61 8.65 89.28 8.41L89.28 8.41L89.28 8.41Q88.94 8.16 88.19 8.16L88.19 8.16L88.19 8.16Q87.51 8.16 87.09 8.31L87.09 8.31L87.09 8.31Q86.66 8.46 86.39 8.76L86.39 8.76L85.39 7.78L85.39 7.78Q85.82 7.35 86.58 7.09L86.58 7.09L86.58 7.09Q87.33 6.83 88.30 6.83L88.30 6.83L88.30 6.83Q89.64 6.83 90.41 7.36L90.41 7.36L90.41 7.36Q91.18 7.88 91.18 8.85L91.18 8.85L91.18 12.47L92.02 13.31ZM86.53 11.86L86.53 11.86Q86.53 12.39 86.88 12.61L86.88 12.61L86.88 12.61Q87.23 12.84 88.14 12.84L88.14 12.84L88.14 12.84Q88.58 12.84 88.97 12.68L88.97 12.68L88.97 12.68Q89.36 12.53 89.61 12.29L89.61 12.29L89.61 10.82L88.66 10.82L88.66 10.82Q87.74 10.82 87.29 10.92L87.29 10.92L87.29 10.92Q86.84 11.02 86.69 11.23L86.69 11.23L86.69 11.23Q86.53 11.44 86.53 11.86L86.53 11.86ZM98.97 8.22L98.97 8.22Q98.29 8.22 97.82 8.53L97.82 8.53L97.82 8.53Q97.34 8.83 97.13 9.23L97.13 9.23L97.13 12.67L99.34 12.67L99.34 14L93.84 14L93.84 12.67L95.55 12.67L95.55 8.33L93.84 8.33L93.84 7L96.71 7L96.98 7.85L96.98 7.85Q97.36 7.36 97.93 7.10L97.93 7.10L97.93 7.10Q98.50 6.83 99.25 6.83L99.25 6.83L99.25 6.83Q99.92 6.83 100.45 7.10L100.45 7.10L99.99 8.44L99.99 8.44Q99.92 8.37 99.65 8.29L99.65 8.29L99.65 8.29Q99.37 8.22 98.97 8.22L98.97 8.22Z"></path></g><!----><g data-v-423bf9ae="" id="a1acca8d-2375-4d4c-8c94-264430cc0142" transform="matrix(1.0212436173788921,0,0,1.0212436173788921,-8.375184449502655,-5.126105219837875)" stroke="none" fill="white"><path style="block-progression:tb;text-indent:0;text-transform:none" d="M37.906 5.938a4.5 4.5 0 0 0-4.5 4.5c0 1.393.661 2.643 1.656 3.469l-9.375 19.688a1.1 1.1 0 0 0-.125 1H9.782a1.1 1.1 0 0 0-.126 0 1.1 1.1 0 0 0-.969 1.093v7.782a1.1 1.1 0 0 0 1.094 1.093h3.25l5.5 48.531a1.1 1.1 0 0 0 1.094.97h60.75a1.1 1.1 0 0 0 1.094-.97l5.5-48.53h3.25a1.1 1.1 0 0 0 1.094-1.094v-7.782a1.1 1.1 0 0 0-1.094-1.093H75.03a1.1 1.1 0 0 0-.125-1L65.53 13.907a4.495 4.495 0 0 0 1.625-3.47 4.5 4.5 0 1 0-3.594 4.407l9.375 19.688a1.1 1.1 0 0 0 .031.063H27.656a1.1 1.1 0 0 0 0-.063l9.375-19.688c.284.056.575.094.875.094a4.5 4.5 0 1 0 0-9zM10.875 36.782h78.25v5.594h-78.25v-5.594zm4.344 7.781H84.78l-5.375 47.313H20.594l-5.375-47.313zm19.03 6.188c-1.647 0-3.03 1.352-3.03 3v28.938c0 1.647 1.383 3 3.03 3 1.648 0 3-1.353 3-3V53.75c0-1.648-1.352-3-3-3zm15.75 0c-1.647 0-3.03 1.352-3.03 3v28.938c0 1.647 1.383 3 3.03 3 1.648 0 3-1.353 3-3V53.75c0-1.648-1.352-3-3-3zm15.75 0c-1.647 0-3 1.352-3 3v28.938c0 1.647 1.353 3 3 3s3-1.353 3-3V53.75c0-1.648-1.352-3-3-3zm-31.5 2.187a.79.79 0 0 1 .813.813v28.938c0 .466-.345.812-.812.812s-.813-.346-.813-.812V53.75a.79.79 0 0 1 .813-.813zm15.75 0a.79.79 0 0 1 .813.813v28.938c0 .466-.345.812-.812.812s-.813-.346-.813-.812V53.75a.79.79 0 0 1 .813-.813zm15.75 0a.79.79 0 0 1 .813.813v28.938c0 .466-.345.812-.812.812s-.813-.346-.813-.812V53.75a.79.79 0 0 1 .813-.813z" color="#000"></path></g><!----><g data-v-423bf9ae="" id="67692d72-ffb6-45fb-b595-8dcb11102d27" fill="white" transform="matrix(1.4560077339321806,0,0,1.4560077339321806,101.71679091833448,53.02572418724153)"><path d="M1.83 14.38L1.83 14.38L1.83 14.38Q1.83 13.87 2.00 13.07L2.00 13.07L2.00 13.07Q2.16 12.26 2.42 11.33L2.42 11.33L2.42 11.33Q2.67 10.40 3.01 9.43L3.01 9.43L3.01 9.43Q3.35 8.46 3.70 7.60L3.70 7.60L3.70 7.60Q4.05 6.75 4.38 6.10L4.38 6.10L4.38 6.10Q4.72 5.46 4.98 5.18L4.98 5.18L4.98 5.18Q5.12 5.19 5.36 5.29L5.36 5.29L5.36 5.29Q5.59 5.38 5.82 5.50L5.82 5.50L5.82 5.50Q6.06 5.63 6.26 5.78L6.26 5.78L6.26 5.78Q6.45 5.92 6.51 6.05L6.51 6.05L6.51 6.05Q6.10 6.41 5.71 7.15L5.71 7.15L5.71 7.15Q5.31 7.88 4.94 8.82L4.94 8.82L4.94 8.82Q4.56 9.76 4.24 10.80L4.24 10.80L4.24 10.80Q3.92 11.84 3.68 12.82L3.68 12.82L3.68 12.82Q3.44 13.80 3.31 14.64L3.31 14.64L3.31 14.64Q3.18 15.48 3.18 16.00L3.18 16.00L3.18 16.00Q3.18 16.24 3.22 16.30L3.22 16.30L3.22 16.30Q2.91 16.28 2.77 16.19L2.77 16.19L2.77 16.19Q2.63 16.10 2.56 16.00L2.56 16.00L2.56 16.00Q2.48 15.89 2.42 15.79L2.42 15.79L2.42 15.79Q2.35 15.68 2.23 15.62L2.23 15.62L2.23 15.62Q2.13 15.58 2.06 15.43L2.06 15.43L2.06 15.43Q1.99 15.27 1.94 15.09L1.94 15.09L1.94 15.09Q1.89 14.90 1.86 14.70L1.86 14.70L1.86 14.70Q1.83 14.50 1.83 14.38ZM21.95 5.74L21.95 5.74L21.95 5.74Q21.99 5.98 22.02 6.07L22.02 6.07L22.02 6.07Q22.04 6.16 22.04 6.31L22.04 6.31L22.04 6.31Q22.04 6.78 21.83 7.18L21.83 7.18L21.83 7.18Q21.63 7.57 21.28 7.74L21.28 7.74L21.28 7.74Q21 7.36 20.59 7.09L20.59 7.09L20.59 7.09Q20.19 6.82 19.70 6.64L19.70 6.64L19.70 6.64Q19.22 6.47 18.70 6.38L18.70 6.38L18.70 6.38Q18.19 6.30 17.70 6.30L17.70 6.30L17.70 6.30Q17.21 6.30 16.78 6.38L16.78 6.38L16.78 6.38Q16.35 6.45 16.02 6.59L16.02 6.59L16.02 6.59Q15.69 6.72 15.50 6.92L15.50 6.92L15.50 6.92Q15.32 7.11 15.32 7.36L15.32 7.36L15.32 7.36Q15.36 7.67 15.69 7.99L15.69 7.99L15.69 7.99Q16.03 8.30 16.52 8.60L16.52 8.60L16.52 8.60Q17.01 8.90 17.61 9.20L17.61 9.20L17.61 9.20Q18.20 9.49 18.77 9.76L18.77 9.76L18.77 9.76Q19.49 10.09 20.01 10.38L20.01 10.38L20.01 10.38Q20.52 10.67 20.86 11.01L20.86 11.01L20.86 11.01Q21.20 11.35 21.36 11.79L21.36 11.79L21.36 11.79Q21.53 12.22 21.53 12.84L21.53 12.84L21.53 12.84Q21.53 13.55 21.29 14.18L21.29 14.18L21.29 14.18Q21.06 14.80 20.60 15.26L20.60 15.26L20.60 15.26Q20.15 15.72 19.50 15.98L19.50 15.98L19.50 15.98Q18.86 16.24 18.06 16.24L18.06 16.24L18.06 16.24Q17.28 16.24 16.37 16.00L16.37 16.00L16.37 16.00Q15.46 15.76 14.66 15.35L14.66 15.35L14.66 15.35Q13.87 14.94 13.35 14.40L13.35 14.40L13.35 14.40Q12.82 13.86 12.82 13.26L12.82 13.26L12.82 13.26Q12.82 12.98 12.98 12.54L12.98 12.54L12.98 12.54Q13.15 12.11 13.57 11.63L13.57 11.63L13.57 11.63Q13.61 12.05 14.02 12.63L14.02 12.63L14.02 12.63Q14.43 13.20 15.26 13.69L15.26 13.69L15.26 13.69Q16.03 14.14 16.85 14.34L16.85 14.34L16.85 14.34Q17.67 14.55 18.38 14.55L18.38 14.55L18.38 14.55Q19.17 14.55 19.66 14.35L19.66 14.35L19.66 14.35Q20.15 14.15 20.43 13.88L20.43 13.88L20.43 13.88Q20.71 13.61 20.82 13.33L20.82 13.33L20.82 13.33Q20.93 13.05 20.94 12.88L20.94 12.88L20.94 12.88Q20.93 12.60 20.69 12.34L20.69 12.34L20.69 12.34Q20.44 12.08 20.03 11.84L20.03 11.84L20.03 11.84Q19.61 11.59 19.07 11.34L19.07 11.34L19.07 11.34Q18.52 11.09 17.93 10.84L17.93 10.84L17.93 10.84Q17.05 10.44 16.41 10.10L16.41 10.10L16.41 10.10Q15.78 9.76 15.37 9.40L15.37 9.40L15.37 9.40Q14.95 9.04 14.76 8.65L14.76 8.65L14.76 8.65Q14.57 8.26 14.57 7.76L14.57 7.76L14.57 7.76Q14.57 6.97 15.05 6.27L15.05 6.27L15.05 6.27Q15.53 5.57 16.42 5.21L16.42 5.21L16.42 5.21Q16.87 5.01 17.38 4.93L17.38 4.93L17.38 4.93Q17.89 4.84 18.38 4.84L18.38 4.84L18.38 4.84Q19.31 4.84 20.19 5.10L20.19 5.10L20.19 5.10Q21.07 5.35 21.95 5.74ZM49.11 5.74L49.11 5.74L49.11 5.74Q49.15 5.98 49.17 6.07L49.17 6.07L49.17 6.07Q49.20 6.16 49.20 6.31L49.20 6.31L49.20 6.31Q49.20 6.78 48.99 7.18L48.99 7.18L48.99 7.18Q48.79 7.57 48.44 7.74L48.44 7.74L48.44 7.74Q48.16 7.36 47.75 7.09L47.75 7.09L47.75 7.09Q47.35 6.82 46.87 6.64L46.87 6.64L46.87 6.64Q46.38 6.47 45.86 6.38L45.86 6.38L45.86 6.38Q45.35 6.30 44.86 6.30L44.86 6.30L44.86 6.30Q44.37 6.30 43.94 6.38L43.94 6.38L43.94 6.38Q43.51 6.45 43.18 6.59L43.18 6.59L43.18 6.59Q42.85 6.72 42.66 6.92L42.66 6.92L42.66 6.92Q42.48 7.11 42.48 7.36L42.48 7.36L42.48 7.36Q42.52 7.67 42.85 7.99L42.85 7.99L42.85 7.99Q43.19 8.30 43.68 8.60L43.68 8.60L43.68 8.60Q44.17 8.90 44.77 9.20L44.77 9.20L44.77 9.20Q45.36 9.49 45.93 9.76L45.93 9.76L45.93 9.76Q46.65 10.09 47.17 10.38L47.17 10.38L47.17 10.38Q47.68 10.67 48.02 11.01L48.02 11.01L48.02 11.01Q48.36 11.35 48.52 11.79L48.52 11.79L48.52 11.79Q48.69 12.22 48.69 12.84L48.69 12.84L48.69 12.84Q48.69 13.55 48.45 14.18L48.45 14.18L48.45 14.18Q48.22 14.80 47.76 15.26L47.76 15.26L47.76 15.26Q47.31 15.72 46.66 15.98L46.66 15.98L46.66 15.98Q46.02 16.24 45.22 16.24L45.22 16.24L45.22 16.24Q44.44 16.24 43.53 16.00L43.53 16.00L43.53 16.00Q42.62 15.76 41.83 15.35L41.83 15.35L41.83 15.35Q41.03 14.94 40.51 14.40L40.51 14.40L40.51 14.40Q39.98 13.86 39.98 13.26L39.98 13.26L39.98 13.26Q39.98 12.98 40.15 12.54L40.15 12.54L40.15 12.54Q40.31 12.11 40.73 11.63L40.73 11.63L40.73 11.63Q40.77 12.05 41.18 12.63L41.18 12.63L41.18 12.63Q41.59 13.20 42.42 13.69L42.42 13.69L42.42 13.69Q43.19 14.14 44.01 14.34L44.01 14.34L44.01 14.34Q44.83 14.55 45.54 14.55L45.54 14.55L45.54 14.55Q46.33 14.55 46.82 14.35L46.82 14.35L46.82 14.35Q47.31 14.15 47.59 13.88L47.59 13.88L47.59 13.88Q47.87 13.61 47.98 13.33L47.98 13.33L47.98 13.33Q48.09 13.05 48.10 12.88L48.10 12.88L48.10 12.88Q48.09 12.60 47.84 12.34L47.84 12.34L47.84 12.34Q47.60 12.08 47.19 11.84L47.19 11.84L47.19 11.84Q46.77 11.59 46.23 11.34L46.23 11.34L46.23 11.34Q45.68 11.09 45.09 10.84L45.09 10.84L45.09 10.84Q44.21 10.44 43.58 10.10L43.58 10.10L43.58 10.10Q42.94 9.76 42.52 9.40L42.52 9.40L42.52 9.40Q42.11 9.04 41.92 8.65L41.92 8.65L41.92 8.65Q41.73 8.26 41.73 7.76L41.73 7.76L41.73 7.76Q41.73 6.97 42.21 6.27L42.21 6.27L42.21 6.27Q42.69 5.57 43.58 5.21L43.58 5.21L43.58 5.21Q44.03 5.01 44.54 4.93L44.54 4.93L44.54 4.93Q45.05 4.84 45.54 4.84L45.54 4.84L45.54 4.84Q46.47 4.84 47.35 5.10L47.35 5.10L47.35 5.10Q48.23 5.35 49.11 5.74ZM61.21 10.35L61.21 10.35L61.21 10.35Q62.26 9.20 63.09 7.91L63.09 7.91L63.09 7.91Q63.92 6.62 64.64 5.01L64.64 5.01L64.64 5.01Q65.00 5.05 65.34 5.21L65.34 5.21L65.34 5.21Q65.67 5.36 65.87 5.56L65.87 5.56L65.87 5.56Q65.10 6.48 64.48 7.24L64.48 7.24L64.48 7.24Q63.85 7.99 63.34 8.66L63.34 8.66L63.34 8.66Q62.82 9.32 62.38 9.93L62.38 9.93L62.38 9.93Q61.94 10.54 61.52 11.16L61.52 11.16L61.52 11.16Q61.31 11.87 61.12 12.60L61.12 12.60L61.12 12.60Q60.94 13.33 60.80 13.99L60.80 13.99L60.80 13.99Q60.66 14.66 60.58 15.22L60.58 15.22L60.58 15.22Q60.51 15.79 60.51 16.20L60.51 16.20L60.51 16.20Q60.35 16.20 60.02 16.14L60.02 16.14L60.02 16.14Q59.68 16.07 59.33 15.99L59.33 15.99L59.33 15.99Q58.98 15.90 58.69 15.82L58.69 15.82L58.69 15.82Q58.41 15.74 58.35 15.68L58.35 15.68L58.35 15.68Q58.58 15.30 58.79 14.75L58.79 14.75L58.79 14.75Q59.01 14.20 59.22 13.59L59.22 13.59L59.22 13.59Q59.43 12.98 59.63 12.36L59.63 12.36L59.63 12.36Q59.82 11.73 59.99 11.20L59.99 11.20L59.99 11.20Q59.64 10.11 59.31 9.15L59.31 9.15L59.31 9.15Q58.98 8.19 58.67 7.41L58.67 7.41L58.67 7.41Q58.37 6.64 58.09 6.08L58.09 6.08L58.09 6.08Q57.81 5.52 57.55 5.22L57.55 5.22L57.55 5.22Q57.69 5.17 57.98 5.11L57.98 5.11L57.98 5.11Q58.27 5.05 58.61 5.00L58.61 5.00L58.61 5.00Q58.95 4.94 59.31 4.91L59.31 4.91L59.31 4.91Q59.67 4.87 59.95 4.86L59.95 4.86L59.95 4.86Q59.95 5.21 60.01 5.71L60.01 5.71L60.01 5.71Q60.07 6.22 60.18 6.79L60.18 6.79L60.18 6.79Q60.28 7.36 60.42 7.95L60.42 7.95L60.42 7.95Q60.56 8.54 60.70 9.03L60.70 9.03L60.70 9.03Q60.84 9.52 60.98 9.88L60.98 9.88L60.98 9.88Q61.11 10.23 61.21 10.35ZM91.08 5.74L91.08 5.74L91.08 5.74Q91.13 5.98 91.15 6.07L91.15 6.07L91.15 6.07Q91.17 6.16 91.17 6.31L91.17 6.31L91.17 6.31Q91.17 6.78 90.96 7.18L90.96 7.18L90.96 7.18Q90.76 7.57 90.41 7.74L90.41 7.74L90.41 7.74Q90.13 7.36 89.73 7.09L89.73 7.09L89.73 7.09Q89.32 6.82 88.84 6.64L88.84 6.64L88.84 6.64Q88.35 6.47 87.84 6.38L87.84 6.38L87.84 6.38Q87.32 6.30 86.83 6.30L86.83 6.30L86.83 6.30Q86.34 6.30 85.91 6.38L85.91 6.38L85.91 6.38Q85.48 6.45 85.15 6.59L85.15 6.59L85.15 6.59Q84.83 6.72 84.64 6.92L84.64 6.92L84.64 6.92Q84.45 7.11 84.45 7.36L84.45 7.36L84.45 7.36Q84.49 7.67 84.83 7.99L84.83 7.99L84.83 7.99Q85.16 8.30 85.65 8.60L85.65 8.60L85.65 8.60Q86.14 8.90 86.74 9.20L86.74 9.20L86.74 9.20Q87.33 9.49 87.91 9.76L87.91 9.76L87.91 9.76Q88.62 10.09 89.14 10.38L89.14 10.38L89.14 10.38Q89.66 10.67 89.99 11.01L89.99 11.01L89.99 11.01Q90.33 11.35 90.50 11.79L90.50 11.79L90.50 11.79Q90.66 12.22 90.66 12.84L90.66 12.84L90.66 12.84Q90.66 13.55 90.43 14.18L90.43 14.18L90.43 14.18Q90.19 14.80 89.73 15.26L89.73 15.26L89.73 15.26Q89.28 15.72 88.63 15.98L88.63 15.98L88.63 15.98Q87.99 16.24 87.19 16.24L87.19 16.24L87.19 16.24Q86.41 16.24 85.50 16.00L85.50 16.00L85.50 16.00Q84.59 15.76 83.80 15.35L83.80 15.35L83.80 15.35Q83.01 14.94 82.48 14.40L82.48 14.40L82.48 14.40Q81.96 13.86 81.96 13.26L81.96 13.26L81.96 13.26Q81.96 12.98 82.12 12.54L82.12 12.54L82.12 12.54Q82.28 12.11 82.70 11.63L82.70 11.63L82.70 11.63Q82.74 12.05 83.15 12.63L83.15 12.63L83.15 12.63Q83.57 13.20 84.39 13.69L84.39 13.69L84.39 13.69Q85.16 14.14 85.98 14.34L85.98 14.34L85.98 14.34Q86.80 14.55 87.51 14.55L87.51 14.55L87.51 14.55Q88.30 14.55 88.79 14.35L88.79 14.35L88.79 14.35Q89.28 14.15 89.56 13.88L89.56 13.88L89.56 13.88Q89.84 13.61 89.95 13.33L89.95 13.33L89.95 13.33Q90.06 13.05 90.08 12.88L90.08 12.88L90.08 12.88Q90.06 12.60 89.82 12.34L89.82 12.34L89.82 12.34Q89.57 12.08 89.16 11.84L89.16 11.84L89.16 11.84Q88.75 11.59 88.20 11.34L88.20 11.34L88.20 11.34Q87.65 11.09 87.07 10.84L87.07 10.84L87.07 10.84Q86.18 10.44 85.55 10.10L85.55 10.10L85.55 10.10Q84.91 9.76 84.50 9.40L84.50 9.40L84.50 9.40Q84.08 9.04 83.89 8.65L83.89 8.65L83.89 8.65Q83.71 8.26 83.71 7.76L83.71 7.76L83.71 7.76Q83.71 6.97 84.18 6.27L84.18 6.27L84.18 6.27Q84.66 5.57 85.55 5.21L85.55 5.21L85.55 5.21Q86.00 5.01 86.51 4.93L86.51 4.93L86.51 4.93Q87.02 4.84 87.51 4.84L87.51 4.84L87.51 4.84Q88.44 4.84 89.32 5.10L89.32 5.10L89.32 5.10Q90.20 5.35 91.08 5.74ZM99.41 16.24L99.41 16.24L99.41 16.24Q98.74 16.04 98.48 15.85L98.48 15.85L98.48 15.85Q98.22 15.65 98.22 15.36L98.22 15.36L98.22 15.36Q98.22 15.13 98.35 14.73L98.35 14.73L98.35 14.73Q98.48 14.32 98.72 13.77L98.72 13.77L98.72 13.77Q98.97 13.22 99.31 12.54L99.31 12.54L99.31 12.54Q99.65 11.87 100.09 11.10L100.09 11.10L100.09 11.10Q99.72 11.09 99.43 11.08L99.43 11.08L99.43 11.08Q99.15 11.07 98.97 11.07L98.97 11.07L98.97 11.07Q99.05 10.86 99.44 10.71L99.44 10.71L99.44 10.71Q99.83 10.56 100.48 10.44L100.48 10.44L100.48 10.44Q101.02 9.53 101.65 8.71L101.65 8.71L101.65 8.71Q102.27 7.88 102.90 7.19L102.90 7.19L102.90 7.19Q103.53 6.50 104.16 5.97L104.16 5.97L104.16 5.97Q104.79 5.45 105.36 5.14L105.36 5.14L105.36 5.14Q105.38 5.04 105.38 4.97L105.38 4.97L105.38 4.97Q105.39 4.90 105.39 4.87L105.39 4.87L105.39 4.87Q105.59 4.87 105.92 4.97L105.92 4.97L105.92 4.97Q106.25 5.07 106.56 5.21L106.56 5.21L106.56 5.21Q106.88 5.35 107.12 5.49L107.12 5.49L107.12 5.49Q107.37 5.64 107.39 5.74L107.39 5.74L107.39 5.74Q106.93 6.55 106.48 8.17L106.48 8.17L106.48 8.17Q106.04 9.79 105.74 12.04L105.74 12.04L105.74 12.04Q105.67 12.60 105.62 13.31L105.62 13.31L105.62 13.31Q105.57 14.03 105.57 14.91L105.57 14.91L105.57 14.91Q105.57 15.22 105.57 15.54L105.57 15.54L105.57 15.54Q105.57 15.86 105.60 16.21L105.60 16.21L105.60 16.21Q105.57 16.23 105.55 16.23L105.55 16.23L105.55 16.23Q105.52 16.23 105.43 16.23L105.43 16.23L105.43 16.23Q105.24 16.23 104.98 16.16L104.98 16.16L104.98 16.16Q104.72 16.10 104.47 16.01L104.47 16.01L104.47 16.01Q104.23 15.92 104.05 15.81L104.05 15.81L104.05 15.81Q103.88 15.69 103.84 15.61L103.84 15.61L103.84 15.61Q103.82 15.43 103.82 15.25L103.82 15.25L103.82 15.25Q103.82 15.08 103.82 14.88L103.82 14.88L103.82 14.88Q103.82 14.01 103.89 13.12L103.89 13.12L103.89 13.12Q103.95 12.22 104.10 11.27L104.10 11.27L104.10 11.27Q103.91 11.26 103.59 11.23L103.59 11.23L103.59 11.23Q103.26 11.21 102.86 11.20L102.86 11.20L102.86 11.20Q102.47 11.19 102.01 11.16L102.01 11.16L102.01 11.16Q101.56 11.14 101.12 11.13L101.12 11.13L101.12 11.13Q100.79 11.76 100.49 12.38L100.49 12.38L100.49 12.38Q100.20 13.01 99.99 13.64L99.99 13.64L99.99 13.64Q99.75 14.31 99.60 14.98L99.60 14.98L99.60 14.98Q99.46 15.65 99.41 16.24ZM104.82 7.83L104.82 7.83L104.82 7.83Q104.87 7.63 104.95 7.29L104.95 7.29L104.95 7.29Q105.03 6.94 105.10 6.57L105.10 6.57L105.10 6.57Q104.75 6.69 104.32 7.03L104.32 7.03L104.32 7.03Q103.89 7.36 103.44 7.86L103.44 7.86L103.44 7.86Q102.98 8.36 102.51 8.98L102.51 8.98L102.51 8.98Q102.05 9.60 101.61 10.30L101.61 10.30L101.61 10.30Q102.79 10.21 104.29 10.18L104.29 10.18L104.29 10.18Q104.40 9.59 104.53 9.01L104.53 9.01L104.53 9.01Q104.66 8.43 104.82 7.83ZM123.80 5.74L123.80 5.74L123.80 5.74Q123.84 5.98 123.86 6.07L123.86 6.07L123.86 6.07Q123.89 6.16 123.89 6.31L123.89 6.31L123.89 6.31Q123.89 6.78 123.68 7.18L123.68 7.18L123.68 7.18Q123.48 7.57 123.13 7.74L123.13 7.74L123.13 7.74Q122.85 7.36 122.44 7.09L122.44 7.09L122.44 7.09Q122.04 6.82 121.55 6.64L121.55 6.64L121.55 6.64Q121.07 6.47 120.55 6.38L120.55 6.38L120.55 6.38Q120.04 6.30 119.55 6.30L119.55 6.30L119.55 6.30Q119.06 6.30 118.63 6.38L118.63 6.38L118.63 6.38Q118.20 6.45 117.87 6.59L117.87 6.59L117.87 6.59Q117.54 6.72 117.35 6.92L117.35 6.92L117.35 6.92Q117.17 7.11 117.17 7.36L117.17 7.36L117.17 7.36Q117.21 7.67 117.54 7.99L117.54 7.99L117.54 7.99Q117.88 8.30 118.37 8.60L118.37 8.60L118.37 8.60Q118.86 8.90 119.45 9.20L119.45 9.20L119.45 9.20Q120.05 9.49 120.62 9.76L120.62 9.76L120.62 9.76Q121.34 10.09 121.86 10.38L121.86 10.38L121.86 10.38Q122.37 10.67 122.71 11.01L122.71 11.01L122.71 11.01Q123.05 11.35 123.21 11.79L123.21 11.79L123.21 11.79Q123.38 12.22 123.38 12.84L123.38 12.84L123.38 12.84Q123.38 13.55 123.14 14.18L123.14 14.18L123.14 14.18Q122.91 14.80 122.45 15.26L122.45 15.26L122.45 15.26Q122.00 15.72 121.35 15.98L121.35 15.98L121.35 15.98Q120.71 16.24 119.91 16.24L119.91 16.24L119.91 16.24Q119.13 16.24 118.22 16.00L118.22 16.00L118.22 16.00Q117.31 15.76 116.51 15.35L116.51 15.35L116.51 15.35Q115.72 14.94 115.20 14.40L115.20 14.40L115.20 14.40Q114.67 13.86 114.67 13.26L114.67 13.26L114.67 13.26Q114.67 12.98 114.83 12.54L114.83 12.54L114.83 12.54Q115.00 12.11 115.42 11.63L115.42 11.63L115.42 11.63Q115.46 12.05 115.87 12.63L115.87 12.63L115.87 12.63Q116.28 13.20 117.11 13.69L117.11 13.69L117.11 13.69Q117.88 14.14 118.70 14.34L118.70 14.34L118.70 14.34Q119.52 14.55 120.23 14.55L120.23 14.55L120.23 14.55Q121.02 14.55 121.51 14.35L121.51 14.35L121.51 14.35Q122.00 14.15 122.28 13.88L122.28 13.88L122.28 13.88Q122.56 13.61 122.67 13.33L122.67 13.33L122.67 13.33Q122.78 13.05 122.79 12.88L122.79 12.88L122.79 12.88Q122.78 12.60 122.53 12.34L122.53 12.34L122.53 12.34Q122.29 12.08 121.88 11.84L121.88 11.84L121.88 11.84Q121.46 11.59 120.92 11.34L120.92 11.34L120.92 11.34Q120.37 11.09 119.78 10.84L119.78 10.84L119.78 10.84Q118.90 10.44 118.26 10.10L118.26 10.10L118.26 10.10Q117.63 9.76 117.21 9.40L117.21 9.40L117.21 9.40Q116.80 9.04 116.61 8.65L116.61 8.65L116.61 8.65Q116.42 8.26 116.42 7.76L116.42 7.76L116.42 7.76Q116.42 6.97 116.90 6.27L116.90 6.27L116.90 6.27Q117.38 5.57 118.27 5.21L118.27 5.21L118.27 5.21Q118.72 5.01 119.23 4.93L119.23 4.93L119.23 4.93Q119.74 4.84 120.23 4.84L120.23 4.84L120.23 4.84Q121.16 4.84 122.04 5.10L122.04 5.10L122.04 5.10Q122.92 5.35 123.80 5.74ZM133.78 6.69L133.78 6.69L133.78 6.69Q133.22 6.69 132.92 6.38L132.92 6.38L132.92 6.38Q132.62 6.06 132.62 5.61L132.62 5.61L132.62 5.61Q132.62 5.50 132.66 5.35L132.66 5.35L132.66 5.35Q132.69 5.19 132.75 5.08L132.75 5.08L132.75 5.08Q132.93 5.17 133.29 5.20L133.29 5.20L133.29 5.20Q133.64 5.24 134.12 5.24L134.12 5.24L134.12 5.24Q134.83 5.24 135.74 5.17L135.74 5.17L135.74 5.17Q136.64 5.11 137.47 5.04L137.47 5.04L137.47 5.04Q138.29 4.97 138.92 4.91L138.92 4.91L138.92 4.91Q139.55 4.84 139.73 4.84L139.73 4.84L139.73 4.84Q140.25 4.84 140.48 5.23L140.48 5.23L140.48 5.23Q140.71 5.61 140.83 6.26L140.83 6.26L140.83 6.26Q140.46 6.23 140.11 6.21L140.11 6.21L140.11 6.21Q139.75 6.19 139.50 6.19L139.50 6.19L139.50 6.19Q139.05 6.19 138.59 6.22L138.59 6.22L138.59 6.22Q138.14 6.24 137.68 6.30L137.68 6.30L137.68 6.30Q137.48 6.71 137.24 7.26L137.24 7.26L137.24 7.26Q137.00 7.81 136.77 8.41L136.77 8.41L136.77 8.41Q136.54 9.02 136.33 9.61L136.33 9.61L136.33 9.61Q136.12 10.21 135.97 10.68L135.97 10.68L135.97 10.68Q135.66 11.61 135.43 12.39L135.43 12.39L135.43 12.39Q135.20 13.17 135.02 13.85L135.02 13.85L135.02 13.85Q134.85 14.53 134.72 15.15L134.72 15.15L134.72 15.15Q134.60 15.76 134.50 16.35L134.50 16.35L134.50 16.35Q133.56 16.21 132.93 15.18L132.93 15.18L132.93 15.18Q133.04 14.74 133.20 14.23L133.20 14.23L133.20 14.23Q133.36 13.72 133.58 13.07L133.58 13.07L133.58 13.07Q133.80 12.42 134.09 11.59L134.09 11.59L134.09 11.59Q134.39 10.77 134.76 9.72L134.76 9.72L134.76 9.72Q134.90 9.32 135.06 8.90L135.06 8.90L135.06 8.90Q135.21 8.47 135.36 8.05L135.36 8.05L135.36 8.05Q135.51 7.63 135.63 7.24L135.63 7.24L135.63 7.24Q135.74 6.85 135.83 6.52L135.83 6.52L135.83 6.52Q135.24 6.59 134.72 6.64L134.72 6.64L134.72 6.64Q134.19 6.69 133.78 6.69ZM146.22 16.24L146.22 16.24L146.22 16.24Q145.54 16.04 145.29 15.85L145.29 15.85L145.29 15.85Q145.03 15.65 145.03 15.36L145.03 15.36L145.03 15.36Q145.03 15.13 145.15 14.73L145.15 14.73L145.15 14.73Q145.28 14.32 145.52 13.77L145.52 13.77L145.52 13.77Q145.77 13.22 146.11 12.54L146.11 12.54L146.11 12.54Q146.45 11.87 146.89 11.10L146.89 11.10L146.89 11.10Q146.52 11.09 146.24 11.08L146.24 11.08L146.24 11.08Q145.95 11.07 145.77 11.07L145.77 11.07L145.77 11.07Q145.85 10.86 146.24 10.71L146.24 10.71L146.24 10.71Q146.64 10.56 147.28 10.44L147.28 10.44L147.28 10.44Q147.83 9.53 148.45 8.71L148.45 8.71L148.45 8.71Q149.07 7.88 149.70 7.19L149.70 7.19L149.70 7.19Q150.33 6.50 150.96 5.97L150.96 5.97L150.96 5.97Q151.59 5.45 152.17 5.14L152.17 5.14L152.17 5.14Q152.18 5.04 152.19 4.97L152.19 4.97L152.19 4.97Q152.19 4.90 152.19 4.87L152.19 4.87L152.19 4.87Q152.39 4.87 152.72 4.97L152.72 4.97L152.72 4.97Q153.05 5.07 153.36 5.21L153.36 5.21L153.36 5.21Q153.68 5.35 153.92 5.49L153.92 5.49L153.92 5.49Q154.17 5.64 154.20 5.74L154.20 5.74L154.20 5.74Q153.73 6.55 153.29 8.17L153.29 8.17L153.29 8.17Q152.84 9.79 152.54 12.04L152.54 12.04L152.54 12.04Q152.47 12.60 152.43 13.31L152.43 13.31L152.43 13.31Q152.38 14.03 152.38 14.91L152.38 14.91L152.38 14.91Q152.38 15.22 152.38 15.54L152.38 15.54L152.38 15.54Q152.38 15.86 152.40 16.21L152.40 16.21L152.40 16.21Q152.38 16.23 152.35 16.23L152.35 16.23L152.35 16.23Q152.32 16.23 152.24 16.23L152.24 16.23L152.24 16.23Q152.04 16.23 151.78 16.16L151.78 16.16L151.78 16.16Q151.52 16.10 151.28 16.01L151.28 16.01L151.28 16.01Q151.03 15.92 150.86 15.81L150.86 15.81L150.86 15.81Q150.68 15.69 150.64 15.61L150.64 15.61L150.64 15.61Q150.63 15.43 150.63 15.25L150.63 15.25L150.63 15.25Q150.63 15.08 150.63 14.88L150.63 14.88L150.63 14.88Q150.63 14.01 150.69 13.12L150.69 13.12L150.69 13.12Q150.75 12.22 150.91 11.27L150.91 11.27L150.91 11.27Q150.71 11.26 150.39 11.23L150.39 11.23L150.39 11.23Q150.07 11.21 149.67 11.20L149.67 11.20L149.67 11.20Q149.27 11.19 148.81 11.16L148.81 11.16L148.81 11.16Q148.36 11.14 147.92 11.13L147.92 11.13L147.92 11.13Q147.59 11.76 147.29 12.38L147.29 12.38L147.29 12.38Q147.00 13.01 146.79 13.64L146.79 13.64L146.79 13.64Q146.55 14.31 146.41 14.98L146.41 14.98L146.41 14.98Q146.26 15.65 146.22 16.24ZM151.62 7.83L151.62 7.83L151.62 7.83Q151.68 7.63 151.75 7.29L151.75 7.29L151.75 7.29Q151.83 6.94 151.90 6.57L151.90 6.57L151.90 6.57Q151.55 6.69 151.12 7.03L151.12 7.03L151.12 7.03Q150.70 7.36 150.24 7.86L150.24 7.86L150.24 7.86Q149.79 8.36 149.32 8.98L149.32 8.98L149.32 8.98Q148.85 9.60 148.41 10.30L148.41 10.30L148.41 10.30Q149.59 10.21 151.09 10.18L151.09 10.18L151.09 10.18Q151.20 9.59 151.33 9.01L151.33 9.01L151.33 9.01Q151.47 8.43 151.62 7.83ZM175.17 10.74L175.17 10.74L175.17 10.74Q176.04 9.45 176.88 8.37L176.88 8.37L176.88 8.37Q177.73 7.28 178.50 6.50L178.50 6.50L178.50 6.50Q179.27 5.71 179.91 5.28L179.91 5.28L179.91 5.28Q180.56 4.84 181.03 4.84L181.03 4.84L181.03 4.84Q181.22 4.84 181.43 4.98L181.43 4.98L181.43 4.98Q181.65 5.12 181.84 5.35L181.84 5.35L181.84 5.35Q182.03 5.57 182.15 5.83L182.15 5.83L182.15 5.83Q182.28 6.09 182.28 6.33L182.28 6.33L182.28 6.33Q181.41 6.61 180.58 7.06L180.58 7.06L180.58 7.06Q179.75 7.52 178.98 8.11L178.98 8.11L178.98 8.11Q178.22 8.71 177.53 9.44L177.53 9.44L177.53 9.44Q176.83 10.16 176.27 10.99L176.27 10.99L176.27 10.99Q176.50 11.56 176.83 12.21L176.83 12.21L176.83 12.21Q177.16 12.87 177.55 13.47L177.55 13.47L177.55 13.47Q177.94 14.08 178.39 14.60L178.39 14.60L178.39 14.60Q178.84 15.12 179.30 15.43L179.30 15.43L179.30 15.43Q179.23 15.58 179.06 15.72L179.06 15.72L179.06 15.72Q178.89 15.86 178.70 15.98L178.70 15.98L178.70 15.98Q178.50 16.10 178.28 16.17L178.28 16.17L178.28 16.17Q178.07 16.24 177.88 16.24L177.88 16.24L177.88 16.24Q177.52 16.24 177.21 15.90L177.21 15.90L177.21 15.90Q176.90 15.55 176.59 14.86L176.59 14.86L176.59 14.86Q176.27 14.17 175.93 13.14L175.93 13.14L175.93 13.14Q175.59 12.11 175.17 10.74ZM173.05 16.31L173.05 16.31L173.05 16.31Q172.52 16.18 172.17 15.87L172.17 15.87L172.17 15.87Q171.82 15.55 171.53 15.08L171.53 15.08L171.53 15.08Q171.65 14.81 171.83 14.38L171.83 14.38L171.83 14.38Q172.00 13.94 172.26 13.31L172.26 13.31L172.26 13.31Q172.51 12.67 172.86 11.78L172.86 11.78L172.86 11.78Q173.21 10.89 173.67 9.70L173.67 9.70L173.67 9.70Q173.96 8.95 174.15 8.43L174.15 8.43L174.15 8.43Q174.34 7.91 174.48 7.41L174.48 7.41L174.48 7.41Q174.61 6.92 174.73 6.31L174.73 6.31L174.73 6.31Q174.86 5.71 175.03 4.79L175.03 4.79L175.03 4.79Q175.62 4.90 176.10 5.31L176.10 5.31L176.10 5.31Q176.58 5.71 176.93 6.29L176.93 6.29L176.93 6.29Q176.78 6.48 176.58 6.88L176.58 6.88L176.58 6.88Q176.37 7.28 176.12 7.84L176.12 7.84L176.12 7.84Q175.87 8.40 175.56 9.09L175.56 9.09L175.56 9.09Q175.25 9.77 174.92 10.54L174.92 10.54L174.92 10.54Q174.16 12.22 173.73 13.62L173.73 13.62L173.73 13.62Q173.29 15.01 173.05 16.31ZM193.21 10.35L193.21 10.35L193.21 10.35Q194.26 9.20 195.10 7.91L195.10 7.91L195.10 7.91Q195.93 6.62 196.64 5.01L196.64 5.01L196.64 5.01Q197.01 5.05 197.34 5.21L197.34 5.21L197.34 5.21Q197.68 5.36 197.88 5.56L197.88 5.56L197.88 5.56Q197.11 6.48 196.48 7.24L196.48 7.24L196.48 7.24Q195.86 7.99 195.34 8.66L195.34 8.66L195.34 8.66Q194.82 9.32 194.38 9.93L194.38 9.93L194.38 9.93Q193.94 10.54 193.52 11.16L193.52 11.16L193.52 11.16Q193.31 11.87 193.13 12.60L193.13 12.60L193.13 12.60Q192.95 13.33 192.81 13.99L192.81 13.99L192.81 13.99Q192.67 14.66 192.59 15.22L192.59 15.22L192.59 15.22Q192.51 15.79 192.51 16.20L192.51 16.20L192.51 16.20Q192.36 16.20 192.02 16.14L192.02 16.14L192.02 16.14Q191.69 16.07 191.34 15.99L191.34 15.99L191.34 15.99Q190.99 15.90 190.70 15.82L190.70 15.82L190.70 15.82Q190.41 15.74 190.36 15.68L190.36 15.68L190.36 15.68Q190.58 15.30 190.80 14.75L190.80 14.75L190.80 14.75Q191.02 14.20 191.23 13.59L191.23 13.59L191.23 13.59Q191.44 12.98 191.63 12.36L191.63 12.36L191.63 12.36Q191.83 11.73 192.00 11.20L192.00 11.20L192.00 11.20Q191.65 10.11 191.32 9.15L191.32 9.15L191.32 9.15Q190.99 8.19 190.68 7.41L190.68 7.41L190.68 7.41Q190.37 6.64 190.09 6.08L190.09 6.08L190.09 6.08Q189.81 5.52 189.56 5.22L189.56 5.22L189.56 5.22Q189.70 5.17 189.99 5.11L189.99 5.11L189.99 5.11Q190.27 5.05 190.62 5.00L190.62 5.00L190.62 5.00Q190.96 4.94 191.32 4.91L191.32 4.91L191.32 4.91Q191.67 4.87 191.95 4.86L191.95 4.86L191.95 4.86Q191.95 5.21 192.02 5.71L192.02 5.71L192.02 5.71Q192.08 6.22 192.19 6.79L192.19 6.79L192.19 6.79Q192.29 7.36 192.43 7.95L192.43 7.95L192.43 7.95Q192.57 8.54 192.71 9.03L192.71 9.03L192.71 9.03Q192.85 9.52 192.98 9.88L192.98 9.88L192.98 9.88Q193.12 10.23 193.21 10.35ZM203.78 16.24L203.78 16.24L203.78 16.24Q203.11 16.04 202.85 15.85L202.85 15.85L202.85 15.85Q202.59 15.65 202.59 15.36L202.59 15.36L202.59 15.36Q202.59 15.13 202.72 14.73L202.72 14.73L202.72 14.73Q202.85 14.32 203.09 13.77L203.09 13.77L203.09 13.77Q203.34 13.22 203.68 12.54L203.68 12.54L203.68 12.54Q204.02 11.87 204.46 11.10L204.46 11.10L204.46 11.10Q204.09 11.09 203.81 11.08L203.81 11.08L203.81 11.08Q203.52 11.07 203.34 11.07L203.34 11.07L203.34 11.07Q203.42 10.86 203.81 10.71L203.81 10.71L203.81 10.71Q204.20 10.56 204.85 10.44L204.85 10.44L204.85 10.44Q205.39 9.53 206.02 8.71L206.02 8.71L206.02 8.71Q206.64 7.88 207.27 7.19L207.27 7.19L207.27 7.19Q207.90 6.50 208.53 5.97L208.53 5.97L208.53 5.97Q209.16 5.45 209.73 5.14L209.73 5.14L209.73 5.14Q209.75 5.04 209.75 4.97L209.75 4.97L209.75 4.97Q209.76 4.90 209.76 4.87L209.76 4.87L209.76 4.87Q209.96 4.87 210.29 4.97L210.29 4.97L210.29 4.97Q210.62 5.07 210.93 5.21L210.93 5.21L210.93 5.21Q211.25 5.35 211.49 5.49L211.49 5.49L211.49 5.49Q211.74 5.64 211.76 5.74L211.76 5.74L211.76 5.74Q211.30 6.55 210.85 8.17L210.85 8.17L210.85 8.17Q210.41 9.79 210.11 12.04L210.11 12.04L210.11 12.04Q210.04 12.60 209.99 13.31L209.99 13.31L209.99 13.31Q209.94 14.03 209.94 14.91L209.94 14.91L209.94 14.91Q209.94 15.22 209.94 15.54L209.94 15.54L209.94 15.54Q209.94 15.86 209.97 16.21L209.97 16.21L209.97 16.21Q209.94 16.23 209.92 16.23L209.92 16.23L209.92 16.23Q209.89 16.23 209.80 16.23L209.80 16.23L209.80 16.23Q209.61 16.23 209.35 16.16L209.35 16.16L209.35 16.16Q209.09 16.10 208.84 16.01L208.84 16.01L208.84 16.01Q208.60 15.92 208.43 15.81L208.43 15.81L208.43 15.81Q208.25 15.69 208.21 15.61L208.21 15.61L208.21 15.61Q208.19 15.43 208.19 15.25L208.19 15.25L208.19 15.25Q208.19 15.08 208.19 14.88L208.19 14.88L208.19 14.88Q208.19 14.01 208.26 13.12L208.26 13.12L208.26 13.12Q208.32 12.22 208.47 11.27L208.47 11.27L208.47 11.27Q208.28 11.26 207.96 11.23L207.96 11.23L207.96 11.23Q207.63 11.21 207.24 11.20L207.24 11.20L207.24 11.20Q206.84 11.19 206.38 11.16L206.38 11.16L206.38 11.16Q205.93 11.14 205.49 11.13L205.49 11.13L205.49 11.13Q205.16 11.76 204.86 12.38L204.86 12.38L204.86 12.38Q204.57 13.01 204.36 13.64L204.36 13.64L204.36 13.64Q204.12 14.31 203.97 14.98L203.97 14.98L203.97 14.98Q203.83 15.65 203.78 16.24ZM209.19 7.83L209.19 7.83L209.19 7.83Q209.24 7.63 209.32 7.29L209.32 7.29L209.32 7.29Q209.40 6.94 209.47 6.57L209.47 6.57L209.47 6.57Q209.12 6.69 208.69 7.03L208.69 7.03L208.69 7.03Q208.26 7.36 207.81 7.86L207.81 7.86L207.81 7.86Q207.35 8.36 206.89 8.98L206.89 8.98L206.89 8.98Q206.42 9.60 205.98 10.30L205.98 10.30L205.98 10.30Q207.16 10.21 208.66 10.18L208.66 10.18L208.66 10.18Q208.77 9.59 208.90 9.01L208.90 9.01L208.90 9.01Q209.03 8.43 209.19 7.83ZM234.93 14.36L234.93 14.36L234.93 14.36Q234.93 13.78 235.13 12.85L235.13 12.85L235.13 12.85Q235.33 11.93 235.65 10.88L235.65 10.88L235.65 10.88Q234.72 10.95 233.79 11.06L233.79 11.06L233.79 11.06Q232.86 11.17 232.18 11.19L232.18 11.19L232.18 11.19Q231.55 12.66 231.18 13.89L231.18 13.89L231.18 13.89Q230.80 15.13 230.59 16.31L230.59 16.31L230.59 16.31Q230.06 16.18 229.71 15.87L229.71 15.87L229.71 15.87Q229.36 15.55 229.07 15.08L229.07 15.08L229.07 15.08Q229.18 14.85 229.33 14.50L229.33 14.50L229.33 14.50Q229.47 14.15 229.68 13.66L229.68 13.66L229.68 13.66Q229.88 13.16 230.14 12.50L230.14 12.50L230.14 12.50Q230.40 11.83 230.73 10.95L230.73 10.95L230.73 10.95Q230.27 10.75 230.12 10.40L230.12 10.40L230.12 10.40Q230.19 10.35 230.43 10.28L230.43 10.28L230.43 10.28Q230.68 10.22 231.04 10.15L231.04 10.15L231.22 9.70L231.22 9.70Q231.52 8.95 231.71 8.43L231.71 8.43L231.71 8.43Q231.90 7.91 232.03 7.41L232.03 7.41L232.03 7.41Q232.16 6.92 232.28 6.31L232.28 6.31L232.28 6.31Q232.40 5.71 232.57 4.79L232.57 4.79L232.57 4.79Q233.16 4.90 233.64 5.31L233.64 5.31L233.64 5.31Q234.12 5.71 234.47 6.29L234.47 6.29L234.47 6.29Q234.35 6.45 234.16 6.79L234.16 6.79L234.16 6.79Q233.98 7.13 233.77 7.59L233.77 7.59L233.77 7.59Q233.55 8.06 233.30 8.64L233.30 8.64L233.30 8.64Q233.04 9.23 232.75 9.87L232.75 9.87L232.75 9.87Q233.62 9.76 234.51 9.66L234.51 9.66L234.51 9.66Q235.40 9.56 236.08 9.52L236.08 9.52L236.08 9.52Q236.33 8.79 236.61 8.10L236.61 8.10L236.61 8.10Q236.88 7.41 237.15 6.83L237.15 6.83L237.15 6.83Q237.41 6.26 237.66 5.82L237.66 5.82L237.66 5.82Q237.90 5.39 238.10 5.18L238.10 5.18L238.10 5.18Q238.24 5.19 238.47 5.29L238.47 5.29L238.47 5.29Q238.70 5.38 238.94 5.50L238.94 5.50L238.94 5.50Q239.18 5.63 239.37 5.78L239.37 5.78L239.37 5.78Q239.57 5.92 239.64 6.05L239.64 6.05L239.64 6.05Q239.39 6.29 239.13 6.66L239.13 6.66L239.13 6.66Q238.88 7.04 238.64 7.53L238.64 7.53L238.64 7.53Q238.39 8.02 238.15 8.60L238.15 8.60L238.15 8.60Q237.92 9.17 237.71 9.79L237.71 9.79L237.71 9.79Q237.99 10.04 237.99 10.42L237.99 10.42L237.99 10.42Q237.99 10.68 237.87 10.91L237.87 10.91L237.87 10.91Q237.75 10.88 237.62 10.87L237.62 10.87L237.62 10.87Q237.50 10.86 237.36 10.85L237.36 10.85L237.36 10.85Q237.12 11.61 236.92 12.35L236.92 12.35L236.92 12.35Q236.73 13.09 236.59 13.76L236.59 13.76L236.59 13.76Q236.46 14.43 236.38 14.99L236.38 14.99L236.38 14.99Q236.31 15.55 236.31 15.93L236.31 15.93L236.31 15.93Q236.31 16.07 236.31 16.16L236.31 16.16L236.31 16.16Q236.32 16.24 236.33 16.30L236.33 16.30L236.33 16.30Q236.03 16.28 235.89 16.19L235.89 16.19L235.89 16.19Q235.75 16.10 235.68 16.00L235.68 16.00L235.68 16.00Q235.61 15.89 235.55 15.79L235.55 15.79L235.55 15.79Q235.49 15.68 235.37 15.62L235.37 15.62L235.37 15.62Q235.27 15.58 235.19 15.43L235.19 15.43L235.19 15.43Q235.10 15.27 235.05 15.08L235.05 15.08L235.05 15.08Q234.99 14.88 234.96 14.69L234.96 14.69L234.96 14.69Q234.93 14.49 234.93 14.36ZM246.34 14.38L246.34 14.38L246.34 14.38Q246.34 13.87 246.50 13.07L246.50 13.07L246.50 13.07Q246.67 12.26 246.92 11.33L246.92 11.33L246.92 11.33Q247.18 10.40 247.52 9.43L247.52 9.43L247.52 9.43Q247.86 8.46 248.21 7.60L248.21 7.60L248.21 7.60Q248.56 6.75 248.89 6.10L248.89 6.10L248.89 6.10Q249.23 5.46 249.49 5.18L249.49 5.18L249.49 5.18Q249.63 5.19 249.86 5.29L249.86 5.29L249.86 5.29Q250.10 5.38 250.33 5.50L250.33 5.50L250.33 5.50Q250.57 5.63 250.77 5.78L250.77 5.78L250.77 5.78Q250.96 5.92 251.02 6.05L251.02 6.05L251.02 6.05Q250.61 6.41 250.22 7.15L250.22 7.15L250.22 7.15Q249.82 7.88 249.44 8.82L249.44 8.82L249.44 8.82Q249.07 9.76 248.75 10.80L248.75 10.80L248.75 10.80Q248.43 11.84 248.19 12.82L248.19 12.82L248.19 12.82Q247.95 13.80 247.82 14.64L247.82 14.64L247.82 14.64Q247.69 15.48 247.69 16.00L247.69 16.00L247.69 16.00Q247.69 16.24 247.73 16.30L247.73 16.30L247.73 16.30Q247.42 16.28 247.28 16.19L247.28 16.19L247.28 16.19Q247.14 16.10 247.06 16.00L247.06 16.00L247.06 16.00Q246.99 15.89 246.92 15.79L246.92 15.79L246.92 15.79Q246.86 15.68 246.74 15.62L246.74 15.62L246.74 15.62Q246.64 15.58 246.57 15.43L246.57 15.43L246.57 15.43Q246.50 15.27 246.45 15.09L246.45 15.09L246.45 15.09Q246.40 14.90 246.37 14.70L246.37 14.70L246.37 14.70Q246.34 14.50 246.34 14.38ZM273.13 14.36L273.13 14.36L273.13 14.36Q273.13 13.78 273.32 12.85L273.32 12.85L273.32 12.85Q273.52 11.93 273.84 10.88L273.84 10.88L273.84 10.88Q272.92 10.95 271.99 11.06L271.99 11.06L271.99 11.06Q271.05 11.17 270.37 11.19L270.37 11.19L270.37 11.19Q269.74 12.66 269.37 13.89L269.37 13.89L269.37 13.89Q269.00 15.13 268.79 16.31L268.79 16.31L268.79 16.31Q268.25 16.18 267.90 15.87L267.90 15.87L267.90 15.87Q267.55 15.55 267.26 15.08L267.26 15.08L267.26 15.08Q267.37 14.85 267.52 14.50L267.52 14.50L267.52 14.50Q267.67 14.15 267.87 13.66L267.87 13.66L267.87 13.66Q268.07 13.16 268.33 12.50L268.33 12.50L268.33 12.50Q268.59 11.83 268.93 10.95L268.93 10.95L268.93 10.95Q268.46 10.75 268.31 10.40L268.31 10.40L268.31 10.40Q268.38 10.35 268.63 10.28L268.63 10.28L268.63 10.28Q268.87 10.22 269.23 10.15L269.23 10.15L269.42 9.70L269.42 9.70Q269.71 8.95 269.90 8.43L269.90 8.43L269.90 8.43Q270.09 7.91 270.22 7.41L270.22 7.41L270.22 7.41Q270.35 6.92 270.47 6.31L270.47 6.31L270.47 6.31Q270.59 5.71 270.76 4.79L270.76 4.79L270.76 4.79Q271.35 4.90 271.83 5.31L271.83 5.31L271.83 5.31Q272.31 5.71 272.66 6.29L272.66 6.29L272.66 6.29Q272.54 6.45 272.36 6.79L272.36 6.79L272.36 6.79Q272.17 7.13 271.96 7.59L271.96 7.59L271.96 7.59Q271.74 8.06 271.49 8.64L271.49 8.64L271.49 8.64Q271.24 9.23 270.94 9.87L270.94 9.87L270.94 9.87Q271.81 9.76 272.70 9.66L272.70 9.66L272.70 9.66Q273.59 9.56 274.27 9.52L274.27 9.52L274.27 9.52Q274.53 8.79 274.80 8.10L274.80 8.10L274.80 8.10Q275.07 7.41 275.34 6.83L275.34 6.83L275.34 6.83Q275.60 6.26 275.85 5.82L275.85 5.82L275.85 5.82Q276.09 5.39 276.29 5.18L276.29 5.18L276.29 5.18Q276.43 5.19 276.66 5.29L276.66 5.29L276.66 5.29Q276.89 5.38 277.13 5.50L277.13 5.50L277.13 5.50Q277.37 5.63 277.56 5.78L277.56 5.78L277.56 5.78Q277.76 5.92 277.83 6.05L277.83 6.05L277.83 6.05Q277.58 6.29 277.33 6.66L277.33 6.66L277.33 6.66Q277.07 7.04 276.83 7.53L276.83 7.53L276.83 7.53Q276.58 8.02 276.35 8.60L276.35 8.60L276.35 8.60Q276.11 9.17 275.90 9.79L275.90 9.79L275.90 9.79Q276.18 10.04 276.18 10.42L276.18 10.42L276.18 10.42Q276.18 10.68 276.07 10.91L276.07 10.91L276.07 10.91Q275.94 10.88 275.81 10.87L275.81 10.87L275.81 10.87Q275.69 10.86 275.55 10.85L275.55 10.85L275.55 10.85Q275.31 11.61 275.11 12.35L275.11 12.35L275.11 12.35Q274.92 13.09 274.79 13.76L274.79 13.76L274.79 13.76Q274.65 14.43 274.57 14.99L274.57 14.99L274.57 14.99Q274.50 15.55 274.50 15.93L274.50 15.93L274.50 15.93Q274.50 16.07 274.50 16.16L274.50 16.16L274.50 16.16Q274.51 16.24 274.53 16.30L274.53 16.30L274.53 16.30Q274.22 16.28 274.08 16.19L274.08 16.19L274.08 16.19Q273.94 16.10 273.87 16.00L273.87 16.00L273.87 16.00Q273.80 15.89 273.74 15.79L273.74 15.79L273.74 15.79Q273.69 15.68 273.56 15.62L273.56 15.62L273.56 15.62Q273.46 15.58 273.38 15.43L273.38 15.43L273.38 15.43Q273.29 15.27 273.24 15.08L273.24 15.08L273.24 15.08Q273.18 14.88 273.15 14.69L273.15 14.69L273.15 14.69Q273.13 14.49 273.13 14.36ZM290.57 4.98L290.57 4.98L290.57 4.98Q290.84 5.10 291.12 5.27L291.12 5.27L291.12 5.27Q291.40 5.45 291.63 5.63L291.63 5.63L291.63 5.63Q291.87 5.81 292.03 5.98L292.03 5.98L292.03 5.98Q292.19 6.16 292.21 6.27L292.21 6.27L292.21 6.27Q291.97 6.22 291.73 6.20L291.73 6.20L291.73 6.20Q291.49 6.17 291.30 6.17L291.30 6.17L291.30 6.17Q290.67 6.17 290.05 6.48L290.05 6.48L290.05 6.48Q289.42 6.79 288.86 7.32L288.86 7.32L288.86 7.32Q288.30 7.85 287.83 8.57L287.83 8.57L287.83 8.57Q287.35 9.28 287.01 10.09L287.01 10.09L287.01 10.09Q286.66 10.91 286.47 11.77L286.47 11.77L286.47 11.77Q286.27 12.64 286.27 13.48L286.27 13.48L286.27 13.48Q286.27 14.57 286.64 15.11L286.64 15.11L286.64 15.11Q287 15.64 287.70 15.64L287.70 15.64L287.70 15.64Q288.04 15.64 288.43 15.51L288.43 15.51L288.43 15.51Q288.82 15.37 289.23 15.13L289.23 15.13L289.23 15.13Q289.63 14.90 290.02 14.56L290.02 14.56L290.02 14.56Q290.42 14.22 290.75 13.82L290.75 13.82L290.75 13.82Q291.24 13.23 291.63 12.48L291.63 12.48L291.63 12.48Q292.03 11.73 292.30 10.89L292.30 10.89L292.30 10.89Q292.57 10.05 292.72 9.16L292.72 9.16L292.72 9.16Q292.87 8.27 292.87 7.42L292.87 7.42L292.87 7.42Q292.87 7.08 292.85 6.85L292.85 6.85L292.85 6.85Q292.84 6.62 292.82 6.46L292.82 6.46L292.82 6.46Q292.80 6.30 292.78 6.20L292.78 6.20L292.78 6.20Q292.77 6.10 292.75 6.03L292.75 6.03L292.75 6.03Q292.92 6.12 293.13 6.24L293.13 6.24L293.13 6.24Q293.33 6.36 293.50 6.59L293.50 6.59L293.50 6.59Q293.68 6.82 293.80 7.20L293.80 7.20L293.80 7.20Q293.92 7.57 293.92 8.18L293.92 8.18L293.92 8.18Q293.92 9.16 293.69 10.10L293.69 10.10L293.69 10.10Q293.45 11.05 293.04 11.90L293.04 11.90L293.04 11.90Q292.63 12.75 292.07 13.50L292.07 13.50L292.07 13.50Q291.51 14.24 290.86 14.80L290.86 14.80L290.86 14.80Q290.02 15.54 289.07 15.95L289.07 15.95L289.07 15.95Q288.12 16.35 287.24 16.35L287.24 16.35L287.24 16.35Q285.95 16.35 285.27 15.53L285.27 15.53L285.27 15.53Q284.59 14.71 284.59 13.12L284.59 13.12L284.59 13.12Q284.59 12.26 284.78 11.31L284.78 11.31L284.78 11.31Q284.97 10.36 285.31 9.44L285.31 9.44L285.31 9.44Q285.66 8.51 286.13 7.68L286.13 7.68L286.13 7.68Q286.61 6.85 287.18 6.21L287.18 6.21L287.18 6.21Q287.74 5.57 288.39 5.19L288.39 5.19L288.39 5.19Q289.04 4.82 289.73 4.82L289.73 4.82L289.73 4.82Q289.95 4.82 290.15 4.85L290.15 4.85L290.15 4.85Q290.35 4.89 290.57 4.98ZM308.99 10.72L308.99 10.72L308.99 10.72Q309.36 10.72 309.57 10.98L309.57 10.98L309.57 10.98Q309.78 11.23 309.78 11.68L309.78 11.68L309.78 11.68Q309.78 11.79 309.76 11.91L309.76 11.91L309.76 11.91Q309.75 12.03 309.72 12.11L309.72 12.11L309.72 12.11Q309.43 12.04 309.08 12.03L309.08 12.03L309.08 12.03Q308.99 12.64 308.63 13.32L308.63 13.32L308.63 13.32Q308.27 14 307.75 14.60L307.75 14.60L307.75 14.60Q307.23 15.19 306.61 15.64L306.61 15.64L306.61 15.64Q306.00 16.09 305.40 16.24L305.40 16.24L305.40 16.24Q303.52 16.20 302.66 15.27L302.66 15.27L302.66 15.27Q301.80 14.34 301.80 12.36L301.80 12.36L301.80 12.36Q301.80 10.92 302.33 9.57L302.33 9.57L302.33 9.57Q302.86 8.22 303.74 7.17L303.74 7.17L303.74 7.17Q304.63 6.12 305.77 5.48L305.77 5.48L305.77 5.48Q306.91 4.84 308.14 4.84L308.14 4.84L308.14 4.84Q309.11 4.84 309.65 5.25L309.65 5.25L309.65 5.25Q310.18 5.66 310.18 6.40L310.18 6.40L310.18 6.40Q310.18 6.89 309.95 7.31L309.95 7.31L309.95 7.31Q309.72 7.73 309.19 8.22L309.19 8.22L309.19 8.22Q308.87 8.12 308.63 7.88L308.63 7.88L308.63 7.88Q308.39 7.63 308.34 7.31L308.34 7.31L308.34 7.31Q308.81 6.96 309.01 6.66L309.01 6.66L309.01 6.66Q309.20 6.37 309.20 5.96L309.20 5.96L309.20 5.96Q309.20 5.32 308.43 5.32L308.43 5.32L308.43 5.32Q307.80 5.32 307.08 5.79L307.08 5.79L307.08 5.79Q306.36 6.26 305.63 7.14L305.63 7.14L305.63 7.14Q304.60 8.39 304.12 9.71L304.12 9.71L304.12 9.71Q303.65 11.03 303.65 12.68L303.65 12.68L303.65 12.68Q303.65 13.30 303.77 13.80L303.77 13.80L303.77 13.80Q303.90 14.31 304.11 14.69L304.11 14.69L304.11 14.69Q304.32 15.06 304.61 15.29L304.61 15.29L304.61 15.29Q304.89 15.51 305.23 15.54L305.23 15.54L305.23 15.54Q305.68 15.44 306.12 15.09L306.12 15.09L306.12 15.09Q306.57 14.73 306.94 14.25L306.94 14.25L306.94 14.25Q307.31 13.76 307.57 13.21L307.57 13.21L307.57 13.21Q307.83 12.66 307.89 12.15L307.89 12.15L307.89 12.15Q307.50 12.24 307.14 12.31L307.14 12.31L307.14 12.31Q306.78 12.39 306.46 12.39L306.46 12.39L306.46 12.39Q306.04 12.39 305.73 12.18L305.73 12.18L305.73 12.18Q305.41 11.97 305.30 11.61L305.30 11.61L305.30 11.61Q305.55 11.47 306.03 11.31L306.03 11.31L306.03 11.31Q306.52 11.16 307.06 11.03L307.06 11.03L307.06 11.03Q307.61 10.89 308.13 10.81L308.13 10.81L308.13 10.81Q308.66 10.72 308.99 10.72ZM317.97 16.24L317.97 16.24L317.97 16.24Q317.30 16.04 317.04 15.85L317.04 15.85L317.04 15.85Q316.78 15.65 316.78 15.36L316.78 15.36L316.78 15.36Q316.78 15.13 316.90 14.73L316.90 14.73L316.90 14.73Q317.03 14.32 317.28 13.77L317.28 13.77L317.28 13.77Q317.52 13.22 317.86 12.54L317.86 12.54L317.86 12.54Q318.21 11.87 318.64 11.10L318.64 11.10L318.64 11.10Q318.28 11.09 317.99 11.08L317.99 11.08L317.99 11.08Q317.70 11.07 317.52 11.07L317.52 11.07L317.52 11.07Q317.60 10.86 318.00 10.71L318.00 10.71L318.00 10.71Q318.39 10.56 319.03 10.44L319.03 10.44L319.03 10.44Q319.58 9.53 320.20 8.71L320.20 8.71L320.20 8.71Q320.82 7.88 321.45 7.19L321.45 7.19L321.45 7.19Q322.08 6.50 322.71 5.97L322.71 5.97L322.71 5.97Q323.34 5.45 323.92 5.14L323.92 5.14L323.92 5.14Q323.93 5.04 323.94 4.97L323.94 4.97L323.94 4.97Q323.95 4.90 323.95 4.87L323.95 4.87L323.95 4.87Q324.14 4.87 324.47 4.97L324.47 4.97L324.47 4.97Q324.80 5.07 325.12 5.21L325.12 5.21L325.12 5.21Q325.43 5.35 325.68 5.49L325.68 5.49L325.68 5.49Q325.92 5.64 325.95 5.74L325.95 5.74L325.95 5.74Q325.49 6.55 325.04 8.17L325.04 8.17L325.04 8.17Q324.59 9.79 324.30 12.04L324.30 12.04L324.30 12.04Q324.23 12.60 324.18 13.31L324.18 13.31L324.18 13.31Q324.13 14.03 324.13 14.91L324.13 14.91L324.13 14.91Q324.13 15.22 324.13 15.54L324.13 15.54L324.13 15.54Q324.13 15.86 324.16 16.21L324.16 16.21L324.16 16.21Q324.13 16.23 324.10 16.23L324.10 16.23L324.10 16.23Q324.07 16.23 323.99 16.23L323.99 16.23L323.99 16.23Q323.79 16.23 323.53 16.16L323.53 16.16L323.53 16.16Q323.27 16.10 323.03 16.01L323.03 16.01L323.03 16.01Q322.78 15.92 322.61 15.81L322.61 15.81L322.61 15.81Q322.43 15.69 322.39 15.61L322.39 15.61L322.39 15.61Q322.38 15.43 322.38 15.25L322.38 15.25L322.38 15.25Q322.38 15.08 322.38 14.88L322.38 14.88L322.38 14.88Q322.38 14.01 322.44 13.12L322.44 13.12L322.44 13.12Q322.50 12.22 322.66 11.27L322.66 11.27L322.66 11.27Q322.46 11.26 322.14 11.23L322.14 11.23L322.14 11.23Q321.82 11.21 321.42 11.20L321.42 11.20L321.42 11.20Q321.02 11.19 320.57 11.16L320.57 11.16L320.57 11.16Q320.11 11.14 319.68 11.13L319.68 11.13L319.68 11.13Q319.34 11.76 319.05 12.38L319.05 12.38L319.05 12.38Q318.75 13.01 318.54 13.64L318.54 13.64L318.54 13.64Q318.30 14.31 318.16 14.98L318.16 14.98L318.16 14.98Q318.01 15.65 317.97 16.24ZM323.37 7.83L323.37 7.83L323.37 7.83Q323.43 7.63 323.51 7.29L323.51 7.29L323.51 7.29Q323.58 6.94 323.65 6.57L323.65 6.57L323.65 6.57Q323.30 6.69 322.88 7.03L322.88 7.03L322.88 7.03Q322.45 7.36 321.99 7.86L321.99 7.86L321.99 7.86Q321.54 8.36 321.07 8.98L321.07 8.98L321.07 8.98Q320.60 9.60 320.17 10.30L320.17 10.30L320.17 10.30Q321.34 10.21 322.84 10.18L322.84 10.18L322.84 10.18Q322.95 9.59 323.09 9.01L323.09 9.01L323.09 9.01Q323.22 8.43 323.37 7.83Z"></path></g></svg>