<svg data-v-fde0c5aa="" xmlns="http://www.w3.org/2000/svg" viewBox="0 0 300 300" class="font"><!----><defs data-v-fde0c5aa=""><!----></defs><rect data-v-fde0c5aa="" fill="transparent" x="0" y="0" width="300px" height="300px" class="logo-background-square"></rect><defs data-v-fde0c5aa=""><linearGradient data-v-fde0c5aa="" gradientTransform="rotate(25)" id="94c6343b-da8a-457e-a036-e0eb6e7b3f3e" x1="0%" y1="0%" x2="100%" y2="0%"><stop data-v-fde0c5aa="" offset="0%" stop-color="#181B80" stop-opacity="1"></stop><stop data-v-fde0c5aa="" offset="100%" stop-color="#181ED9" stop-opacity="1"></stop></linearGradient></defs><g data-v-fde0c5aa="" id="e0710f97-ba3b-4bf0-b819-648cb80c2ec7" fill="url(#94c6343b-da8a-457e-a036-e0eb6e7b3f3e)" transform="matrix(2.202422678388749,0,0,2.202422678388749,38.7666432948513,129.7377117789023)"><path d="M4.14 8.16L4.14 8.16Q4.23 8.19 4.32 8.22L4.32 8.22L4.32 8.22Q4.41 8.25 4.48 8.27L4.48 8.27L4.48 8.27Q5.38 8.58 6.03 8.90L6.03 8.90L6.03 8.90Q6.68 9.23 7.17 9.83L7.17 9.83L7.17 9.83Q7.67 10.43 7.67 11.34L7.67 11.34L7.67 11.34Q7.67 12.81 6.64 13.48L6.64 13.48L6.64 13.48Q5.61 14.15 4.10 14.15L4.10 14.15L4.10 14.15Q2.86 14.15 1.94 13.72L1.94 13.72L1.94 13.72Q1.02 13.29 0.56 12.36L0.56 12.36L1.97 11.65L1.97 11.65Q2.23 12.19 2.77 12.50L2.77 12.50L2.77 12.50Q3.32 12.81 4.10 12.81L4.10 12.81L4.10 12.81Q4.98 12.81 5.51 12.49L5.51 12.49L5.51 12.49Q6.03 12.17 6.03 11.35L6.03 11.35L6.03 11.35Q6.03 10.85 5.75 10.54L5.75 10.54L5.75 10.54Q5.47 10.22 5.12 10.07L5.12 10.07L5.12 10.07Q4.77 9.91 4.06 9.66L4.06 9.66L4.06 9.66Q3.26 9.38 2.65 9.08L2.65 9.08L2.65 9.08Q2.03 8.78 1.53 8.16L1.53 8.16L1.53 8.16Q1.02 7.55 1.02 6.61L1.02 6.61L1.02 6.61Q1.02 5.29 2.01 4.70L2.01 4.70L2.01 4.70Q3.00 4.12 4.40 4.12L4.40 4.12L4.40 4.12Q5.46 4.12 6.28 4.55L6.28 4.55L6.28 4.55Q7.10 4.98 7.53 5.89L7.53 5.89L6.16 6.62L6.16 6.62Q5.66 5.46 4.40 5.46L4.40 5.46L4.40 5.46Q2.67 5.46 2.67 6.62L2.67 6.62L2.67 6.62Q2.67 7.21 3.08 7.57L3.08 7.57L3.08 7.57Q3.49 7.92 4.14 8.16L4.14 8.16ZM16.42 13.31L15.41 14.28L14.53 13.41L14.53 13.41Q13.61 14.15 12.31 14.15L12.31 14.15L12.31 14.15Q10.81 14.15 10.09 13.59L10.09 13.59L10.09 13.59Q9.38 13.03 9.38 11.86L9.38 11.86L9.38 11.86Q9.38 10.68 10.16 10.13L10.16 10.13L10.16 10.13Q10.93 9.58 12.59 9.58L12.59 9.58L14.01 9.58L14.01 9.21L14.01 9.21Q14.01 8.65 13.68 8.41L13.68 8.41L13.68 8.41Q13.34 8.16 12.59 8.16L12.59 8.16L12.59 8.16Q11.91 8.16 11.49 8.31L11.49 8.31L11.49 8.31Q11.06 8.46 10.79 8.76L10.79 8.76L9.79 7.78L9.79 7.78Q10.22 7.35 10.98 7.09L10.98 7.09L10.98 7.09Q11.73 6.83 12.70 6.83L12.70 6.83L12.70 6.83Q14.04 6.83 14.81 7.36L14.81 7.36L14.81 7.36Q15.58 7.88 15.58 8.85L15.58 8.85L15.58 12.47L16.42 13.31ZM10.93 11.86L10.93 11.86Q10.93 12.39 11.28 12.61L11.28 12.61L11.28 12.61Q11.63 12.84 12.54 12.84L12.54 12.84L12.54 12.84Q12.98 12.84 13.37 12.68L13.37 12.68L13.37 12.68Q13.76 12.53 14.01 12.29L14.01 12.29L14.01 10.82L13.06 10.82L13.06 10.82Q12.14 10.82 11.69 10.92L11.69 10.92L11.69 10.92Q11.24 11.02 11.09 11.23L11.09 11.23L11.09 11.23Q10.93 11.44 10.93 11.86L10.93 11.86ZM21.03 14.15L21.03 14.15Q20.02 14.15 19.12 13.83L19.12 13.83L19.12 13.83Q18.23 13.51 17.79 12.87L17.79 12.87L19.08 12.03L19.08 12.03Q19.29 12.39 19.88 12.61L19.88 12.61L19.88 12.61Q20.47 12.84 21.08 12.84L21.08 12.84L21.08 12.84Q21.73 12.84 22.17 12.64L22.17 12.64L22.17 12.64Q22.61 12.45 22.61 12.04L22.61 12.04L22.61 12.04Q22.61 11.75 22.34 11.55L22.34 11.55L22.34 11.55Q22.08 11.35 21.79 11.27L21.79 11.27L21.79 11.27Q21.50 11.19 20.97 11.05L20.97 11.05L20.97 11.05Q19.92 10.81 19.05 10.29L19.05 10.29L19.05 10.29Q18.19 9.77 18.19 8.76L18.19 8.76L18.19 8.76Q18.19 8.12 18.63 7.69L18.63 7.69L18.63 7.69Q19.08 7.25 19.76 7.04L19.76 7.04L19.76 7.04Q20.44 6.83 21.15 6.83L21.15 6.83L21.15 6.83Q22.01 6.83 22.79 7.15L22.79 7.15L22.79 7.15Q23.56 7.46 23.98 8.12L23.98 8.12L22.78 8.90L22.78 8.90Q22.54 8.53 22.06 8.33L22.06 8.33L22.06 8.33Q21.59 8.13 21.13 8.13L21.13 8.13L21.13 8.13Q20.59 8.13 20.18 8.32L20.18 8.32L20.18 8.32Q19.77 8.50 19.77 8.85L19.77 8.85L19.77 8.85Q19.77 9.17 20.15 9.35L20.15 9.35L20.15 9.35Q20.54 9.53 21.15 9.70L21.15 9.70L21.46 9.79L21.46 9.79Q22.19 9.98 22.74 10.20L22.74 10.20L22.74 10.20Q23.30 10.42 23.75 10.86L23.75 10.86L23.75 10.86Q24.21 11.31 24.21 12.00L24.21 12.00L24.21 12.00Q24.21 12.71 23.75 13.20L23.75 13.20L23.75 13.20Q23.30 13.69 22.58 13.92L22.58 13.92L22.58 13.92Q21.85 14.15 21.03 14.15L21.03 14.15ZM32.10 8.33L29.64 8.33L29.64 11.83L29.64 11.83Q29.64 12.45 29.83 12.67L29.83 12.67L29.83 12.67Q30.03 12.89 30.39 12.89L30.39 12.89L30.39 12.89Q30.86 12.89 31.67 12.71L31.67 12.71L31.67 14L31.67 14Q31.63 14 31.25 14.08L31.25 14.08L31.25 14.08Q30.87 14.15 30.10 14.15L30.10 14.15L30.10 14.15Q28.07 14.15 28.07 12.29L28.07 12.29L28.07 8.33L26.11 8.33L26.11 7L28.07 7L28.07 4.48L29.64 4.48L29.64 7L32.10 7L32.10 8.33ZM41.62 13.31L40.61 14.28L39.73 13.41L39.73 13.41Q38.81 14.15 37.51 14.15L37.51 14.15L37.51 14.15Q36.01 14.15 35.29 13.59L35.29 13.59L35.29 13.59Q34.58 13.03 34.58 11.86L34.58 11.86L34.58 11.86Q34.58 10.68 35.36 10.13L35.36 10.13L35.36 10.13Q36.13 9.58 37.79 9.58L37.79 9.58L39.21 9.58L39.21 9.21L39.21 9.21Q39.21 8.65 38.88 8.41L38.88 8.41L38.88 8.41Q38.54 8.16 37.79 8.16L37.79 8.16L37.79 8.16Q37.11 8.16 36.69 8.31L36.69 8.31L36.69 8.31Q36.26 8.46 35.99 8.76L35.99 8.76L34.99 7.78L34.99 7.78Q35.42 7.35 36.18 7.09L36.18 7.09L36.18 7.09Q36.93 6.83 37.90 6.83L37.90 6.83L37.90 6.83Q39.24 6.83 40.01 7.36L40.01 7.36L40.01 7.36Q40.78 7.88 40.78 8.85L40.78 8.85L40.78 12.47L41.62 13.31ZM36.13 11.86L36.13 11.86Q36.13 12.39 36.48 12.61L36.48 12.61L36.48 12.61Q36.83 12.84 37.74 12.84L37.74 12.84L37.74 12.84Q38.18 12.84 38.57 12.68L38.57 12.68L38.57 12.68Q38.96 12.53 39.21 12.29L39.21 12.29L39.21 10.82L38.26 10.82L38.26 10.82Q37.34 10.82 36.89 10.92L36.89 10.92L36.89 10.92Q36.44 11.02 36.29 11.23L36.29 11.23L36.29 11.23Q36.13 11.44 36.13 11.86L36.13 11.86ZM56.32 8.82L56.32 8.82Q56.32 8.76 56.81 8.97L56.81 8.97L56.81 8.97Q57.30 9.17 57.69 9.70L57.69 9.70L57.69 9.70Q58.09 10.23 58.09 11.20L58.09 11.20L58.09 11.20Q58.09 12.60 57.42 13.30L57.42 13.30L57.42 13.30Q56.76 14 55.50 14L55.50 14L51.59 14L51.59 4.20L54.78 4.20L54.78 4.20Q55.55 4.20 56.15 4.35L56.15 4.35L56.15 4.35Q56.74 4.49 57.17 5.03L57.17 5.03L57.17 5.03Q57.60 5.56 57.60 6.59L57.60 6.59L57.60 6.59Q57.60 7.49 57.32 7.98L57.32 7.98L57.32 7.98Q57.04 8.47 56.68 8.67L56.68 8.67L56.68 8.67Q56.32 8.88 56.32 8.82L56.32 8.82ZM53.16 5.53L53.16 8.29L54.81 8.29L54.81 8.29Q55.43 8.29 55.69 7.93L55.69 7.93L55.69 7.93Q55.94 7.57 55.94 6.79L55.94 6.79L55.94 6.79Q55.94 6.27 55.83 6.01L55.83 6.01L55.83 6.01Q55.72 5.74 55.47 5.63L55.47 5.63L55.47 5.63Q55.22 5.53 54.75 5.53L54.75 5.53L53.16 5.53ZM55.13 12.67L55.13 12.67Q55.71 12.67 56 12.51L56 12.51L56 12.51Q56.29 12.35 56.40 12.02L56.40 12.02L56.40 12.02Q56.50 11.69 56.50 11.14L56.50 11.14L56.50 11.14Q56.50 10.29 56.15 9.95L56.15 9.95L56.15 9.95Q55.79 9.60 55.13 9.60L55.13 9.60L53.16 9.60L53.16 12.67L55.13 12.67ZM66.82 13.31L65.81 14.28L64.93 13.41L64.93 13.41Q64.01 14.15 62.71 14.15L62.71 14.15L62.71 14.15Q61.21 14.15 60.49 13.59L60.49 13.59L60.49 13.59Q59.78 13.03 59.78 11.86L59.78 11.86L59.78 11.86Q59.78 10.68 60.56 10.13L60.56 10.13L60.56 10.13Q61.33 9.58 62.99 9.58L62.99 9.58L64.41 9.58L64.41 9.21L64.41 9.21Q64.41 8.65 64.08 8.41L64.08 8.41L64.08 8.41Q63.74 8.16 62.99 8.16L62.99 8.16L62.99 8.16Q62.31 8.16 61.89 8.31L61.89 8.31L61.89 8.31Q61.46 8.46 61.19 8.76L61.19 8.76L60.19 7.78L60.19 7.78Q60.62 7.35 61.38 7.09L61.38 7.09L61.38 7.09Q62.13 6.83 63.10 6.83L63.10 6.83L63.10 6.83Q64.44 6.83 65.21 7.36L65.21 7.36L65.21 7.36Q65.98 7.88 65.98 8.85L65.98 8.85L65.98 12.47L66.82 13.31ZM61.33 11.86L61.33 11.86Q61.33 12.39 61.68 12.61L61.68 12.61L61.68 12.61Q62.03 12.84 62.94 12.84L62.94 12.84L62.94 12.84Q63.38 12.84 63.77 12.68L63.77 12.68L63.77 12.68Q64.16 12.53 64.41 12.29L64.41 12.29L64.41 10.82L63.46 10.82L63.46 10.82Q62.54 10.82 62.09 10.92L62.09 10.92L62.09 10.92Q61.64 11.02 61.49 11.23L61.49 11.23L61.49 11.23Q61.33 11.44 61.33 11.86L61.33 11.86ZM70.53 12.67L74.33 12.67L74.33 14L68.74 14L68.74 12.67L72.39 8.33L68.85 8.33L68.85 7L74.16 7L74.16 8.33L70.53 12.67ZM78.93 12.67L82.73 12.67L82.73 14L77.14 14L77.14 12.67L80.79 8.33L77.25 8.33L77.25 7L82.56 7L82.56 8.33L78.93 12.67ZM92.02 13.31L91.01 14.28L90.13 13.41L90.13 13.41Q89.21 14.15 87.91 14.15L87.91 14.15L87.91 14.15Q86.41 14.15 85.69 13.59L85.69 13.59L85.69 13.59Q84.98 13.03 84.98 11.86L84.98 11.86L84.98 11.86Q84.98 10.68 85.76 10.13L85.76 10.13L85.76 10.13Q86.53 9.58 88.19 9.58L88.19 9.58L89.61 9.58L89.61 9.21L89.61 9.21Q89.61 8.65 89.28 8.41L89.28 8.41L89.28 8.41Q88.94 8.16 88.19 8.16L88.19 8.16L88.19 8.16Q87.51 8.16 87.09 8.31L87.09 8.31L87.09 8.31Q86.66 8.46 86.39 8.76L86.39 8.76L85.39 7.78L85.39 7.78Q85.82 7.35 86.58 7.09L86.58 7.09L86.58 7.09Q87.33 6.83 88.30 6.83L88.30 6.83L88.30 6.83Q89.64 6.83 90.41 7.36L90.41 7.36L90.41 7.36Q91.18 7.88 91.18 8.85L91.18 8.85L91.18 12.47L92.02 13.31ZM86.53 11.86L86.53 11.86Q86.53 12.39 86.88 12.61L86.88 12.61L86.88 12.61Q87.23 12.84 88.14 12.84L88.14 12.84L88.14 12.84Q88.58 12.84 88.97 12.68L88.97 12.68L88.97 12.68Q89.36 12.53 89.61 12.29L89.61 12.29L89.61 10.82L88.66 10.82L88.66 10.82Q87.74 10.82 87.29 10.92L87.29 10.92L87.29 10.92Q86.84 11.02 86.69 11.23L86.69 11.23L86.69 11.23Q86.53 11.44 86.53 11.86L86.53 11.86ZM98.97 8.22L98.97 8.22Q98.29 8.22 97.82 8.53L97.82 8.53L97.82 8.53Q97.34 8.83 97.13 9.23L97.13 9.23L97.13 12.67L99.34 12.67L99.34 14L93.84 14L93.84 12.67L95.55 12.67L95.55 8.33L93.84 8.33L93.84 7L96.71 7L96.98 7.85L96.98 7.85Q97.36 7.36 97.93 7.10L97.93 7.10L97.93 7.10Q98.50 6.83 99.25 6.83L99.25 6.83L99.25 6.83Q99.92 6.83 100.45 7.10L100.45 7.10L99.99 8.44L99.99 8.44Q99.92 8.37 99.65 8.29L99.65 8.29L99.65 8.29Q99.37 8.22 98.97 8.22L98.97 8.22Z"></path></g><!----><!----></svg>